# xmcd
# 
# Track frame offsets:
#     150
#     18358
#     43580
#     61988
#     79305
#     99423
#     117630
#     142838
#     161258
#     178573
# 
# Disc length: 2645
# 
# Revision: 2
# Processed by: cddbd v1.5.2PL0 Copyright (c) Steve Scherf et al.
# Submitted via: fre:ac v1.0.17
# 
DISCID=790a530a
DTITLE=Various Artist - むしまるQゴールド スワローアゲイン（夏が来る）
DYEAR=2001
DGENRE=アニメ
TTITLE0=本田義博 - スワローアゲイン（夏が来る）
TTITLE1=鈴木トオル - ボス豚
TTITLE2=影山ヒロノブ - ミ・ツ・バ・チャ・い・た・い
TTITLE3=中村祐介 - じみへん
TTITLE4=GENKI - カキはえいゆう
TTITLE5=本田義博 - オリジナル・カラオケ/スワローアゲイン（夏が来る）
TTITLE6=鈴木トオル - オリジナル・カラオケ/ボス豚
TTITLE7=影山ヒロノブ - オリジナル・カラオケ/ミ・ツ・バ・チャ・い・た・い
TTITLE8=中村祐介 - オリジナル・カラオケ/じみへん
TTITLE9=GENKI - オリジナル・カラオケ/カキはえいゆう
EXTD=YEAR: 2001
EXTT0=
EXTT1=
EXTT2=
EXTT3=
EXTT4=
EXTT5=
EXTT6=
EXTT7=
EXTT8=
EXTT9=
PLAYORDER=
